<svg xmlns="http://www.w3.org/2000/svg" width="868" height="915" viewBox="0 0 868 915" role="img" aria-labelledby="title desc">
  <title id="title">Black tree and roots mark</title>
  <desc id="desc">Production vector artwork for Evermore Life Insurance LLC.</desc>
  <path d="M608,822 611,822 614,824 620,825 623,827 625,827 628,829 632,830 638,834 647,844 644,839 636,831 637,829 664,829 665,828 671,827 667,827 666,828 640,828 639,827 630,826 629,825 622,824 621,823Z M692,498 692,500 689,507 689,510 688,511 688,528 689,529 689,532 691,535 692,539 696,545 712,562 717,548 717,543 718,542 718,528 717,527 717,523 712,512 703,503 695,498 702,516 702,518 700,519Z M700,520 702,519 703,521 701,522Z M176,498 175,502 173,505 173,507 171,510 169,518 167,519 166,518 166,516 173,498 171,500 165,503 156,512 150,526 150,532 149,533 150,545 151,546 151,550 153,554 153,557 156,562 156,561 174,542 179,531 179,528 180,527 180,512 179,511 179,508 177,503 177,499Z M164,523 166,522 167,524 165,525Z M165,520 167,519 168,521 166,522Z M711,480 713,484 715,494 718,500 724,507 731,512 735,513 738,515 744,516 745,517 750,517 751,518 756,519 755,517 755,513 754,512 751,501 745,491 738,485 729,481 726,481 725,480Z M719,486 721,485 722,487 720,488Z M715,483 717,482 718,484 716,485Z M157,480 153,480 152,481 150,480 140,481 129,486 119,497 115,506 115,509 113,513 112,519 133,514 143,508 150,500 155,487 155,483Z M150,483 152,482 153,484 151,485Z M760,473 762,473 770,477 772,479 777,481 789,489 790,492 788,493 783,490 782,488 776,486 775,484 771,483 761,477 759,477 767,493 771,497 771,498 777,503 786,508 788,508 795,511 809,512 810,513 817,512 815,511 814,506 810,498 810,495 807,493 804,487 797,480 792,478 791,476 781,472 763,472 762,473Z M790,493 791,492 793,492 795,493 797,496 796,497 793,497Z M109,473 107,472 87,472 73,478 69,481 59,492 59,494 57,496 53,504 53,506 51,510 51,513 59,513 60,512 73,511 77,509 80,509 90,504 101,493 104,487 106,485 106,483 108,481 108,479 110,476 91,485 85,489 84,489 83,487 89,482 107,473Z M80,489 82,488 83,490 81,491Z M631,461 635,465 637,470 637,489 641,500 649,510 664,521 666,521 667,511 668,510 668,498 663,484 655,475 644,469 640,468Z M644,478 646,477 647,479 645,480Z M642,475 644,474 645,476 643,477Z M240,460 230,468 223,470 214,475 208,481 204,487 204,489 202,492 201,502 200,503 202,522 217,512 224,505 228,499 231,491 231,485 232,484 232,470 233,469 233,467Z M220,481 222,480 223,482 221,483Z M786,456 790,456 801,466 807,469 809,469 810,470 815,470 816,471 826,470 842,464 833,455 831,455 829,452 818,447 807,447 806,448 801,449 789,456Z M810,457 812,456 813,458 811,459Z M801,456 802,455 806,455 807,457 806,458 802,458Z M26,465 28,465 31,467 33,467 40,470 44,470 45,471 54,471 55,470 59,470 65,467 77,456 81,456 77,456 71,451 64,448 61,448 60,447 51,447 50,448 45,449 35,455 26,464Z M57,457 59,456 60,458 58,459Z M62,456 63,455 69,455 70,457 69,458 63,458Z M730,442 732,442 739,446 741,446 745,448 748,448 749,449 761,449 762,448 769,447 773,445 783,438 789,432 790,432 792,429 786,426 784,426 779,423 773,422 772,421 758,421 757,422 754,422 743,428 736,435 734,439 739,437 742,437 746,435 749,435 750,434 753,434 754,435 753,437 751,437 747,439 744,439 737,442Z M754,434 755,433 757,433 758,435 757,436 755,436Z M759,433 760,432 762,432 763,434 762,435 760,435Z M75,430 93,444 99,447 105,448 106,449 120,449 121,448 129,446 134,443 136,443 131,441 124,440 117,437 114,437 113,435 114,434 117,434 118,435 125,436 136,440 136,439 135,439 124,427 117,423 111,422 110,421 97,421 96,422 93,422Z M110,434 112,433 113,435 111,436Z M146,419 150,423 150,424 162,435 168,438 174,439 175,440 187,440 188,439 193,438 202,433 205,433 204,433 191,420 184,416 178,415 177,414 165,414 164,415 153,417 149,419Z M197,431 199,430 200,432 198,433Z M193,430 194,429 196,429 197,431 196,432 194,432Z M189,429 190,428 192,428 193,430 192,431 190,431Z M185,428 186,427 188,427 189,429 188,430 186,430Z M722,419 720,419 713,416 710,416 706,414 700,414 699,413 697,413 696,414 689,414 688,415 683,416 678,419 665,432 662,433 666,432 668,434 676,438 683,439 684,440 696,439 704,436 711,431Z M667,431 669,430 670,432 668,433Z M670,430 671,429 673,429 674,431 673,432 671,432Z M675,429 677,428 678,430 676,431Z M679,428 681,427 682,429 680,430Z M787,407 790,408 796,413 805,418 808,418 809,419 823,419 832,415 834,415 849,404 840,398 827,392 814,391 813,392 807,393 801,396 794,401 793,403 791,404 791,406 790,407Z M793,406 794,404 801,404 802,403 814,403 815,404 814,406 805,406 804,407 794,407Z M815,403 816,402 818,402 819,404 818,405 816,405Z M18,404 18,405 33,415 42,419 46,419 47,420 54,420 55,419 59,419 60,418 65,417 73,412 76,409 81,407 78,407 72,400 65,395 57,392 54,392 53,391 46,391 45,392 37,393Z M71,406 72,405 76,405 77,407 76,408 72,408Z M61,405 62,404 70,404 71,406 70,407 62,407Z M49,404 50,403 52,403 53,405 52,406 50,406Z M619,361 609,366 597,377 596,380 594,382 594,384 592,388 592,392 591,393 591,409 584,418 592,410 606,404 615,395 618,389 619,383 620,382 620,368 619,367Z M248,361 246,378 247,379 247,384 251,394 259,403 268,408 275,410 281,416 276,410 276,407 275,406 275,388 270,377 261,368 250,361Z M79,362 87,373 95,381 101,384 103,386 105,386 109,388 114,388 115,389 117,389 118,388 124,388 125,387 131,386 134,384 137,384 137,380 133,374 124,365 115,360 113,360 112,359 92,359 87,361Z M131,380 133,379 134,381 132,382Z M126,378 128,377 130,378 131,380 129,381 127,380Z M123,377 125,376 126,378 124,379Z M118,375 120,374 121,376 119,377Z M115,374 117,373 118,375 116,376Z M788,362 783,360 780,360 779,359 774,359 773,358 761,358 760,359 755,359 754,360 752,360 742,366 736,372 730,381 727,383 731,383 734,385 736,385 739,387 742,387 743,388 755,388 756,387 763,386 773,380 779,374Z M735,379 737,378 738,380 736,381Z M743,376 745,375 746,377 744,378Z M189,325 188,336 187,337 187,344 188,345 188,352 187,353 188,354 189,361 191,362 191,365 193,369 197,372 203,380 215,387 220,388 214,380 212,374 210,373 210,371 207,366 207,363 206,361 204,360 200,350 202,349 204,351 212,367 217,373 217,376 218,378 220,379 220,381 223,386 224,366 222,365 223,360 222,359 222,357 220,356 220,354 221,353 220,351 218,350 215,344 206,334 191,325Z M678,324 677,326 675,326 673,328 671,328 663,333 650,347 646,355 645,361 644,362 644,379 643,380 643,384 645,383 645,381 648,379 650,373 652,372 652,368 654,366 658,357 660,355 660,353 663,350 665,351 663,355 664,357 650,386 653,384 657,384 658,382 660,382 668,375 673,367 675,366 676,364 676,360 678,359 678,357 679,356 678,355 678,353 680,352 679,351 679,341 680,340 679,339Z M832,322 830,322 829,321 823,321 822,320 808,320 807,321 805,321 794,328 787,336 787,338 788,339 794,336 796,334 799,334 801,333 802,331 806,331 807,329 809,330 810,328 812,329 812,331 810,333 808,333 804,336 801,336 791,342 789,342 786,344 783,344 788,343 790,345 793,345 794,346 800,346 801,345 804,345 805,346 807,344 809,345 810,343 812,344 816,342 817,340 819,340 819,339 826,332 827,332 827,330 831,325 831,323Z M34,323 34,325 40,333 47,340 58,346 71,347 72,346 76,346 77,345 83,344 78,343 61,334 61,333 63,332 66,334 71,335 82,341 77,332 74,330 74,328 63,321 56,320 55,319 48,319 47,320 37,321Z M730,314 728,314 725,316 723,316 714,320 703,330 699,338 698,344 697,345 697,360 696,362 702,358 707,357 715,353 725,342 729,332Z M137,314 137,326 138,327 138,332 139,333 141,341 146,348 153,354 159,357 165,358 170,361 169,360 170,358 169,357 169,343 168,342 167,336 161,327 154,321 144,316Z M164,354 166,353 167,355 165,356Z M793,301 792,300 782,299 781,298 771,298 770,299 763,300 758,303 757,305 751,310 745,320 749,319 759,311 761,312 761,311 764,309 768,309 769,311 762,316 746,324 748,325 752,325 753,326 762,326 764,324 766,325 770,324 774,321 776,321 776,320 788,309 790,304Z M72,301 75,304 80,312 87,319 95,324 97,324 100,326 117,326 118,325 124,325 122,324 123,321 118,311 109,302 103,299 100,299 99,298 81,298 80,299 76,299Z M118,321 120,320 121,322 119,323Z M113,318 115,317 117,318 118,320 116,321 114,320Z M106,314 108,313 109,315 107,316Z M364,297 357,305 353,311 352,315 350,318 350,333 355,343 358,347 359,353 359,347 362,345 369,336 371,332 372,325 373,324 372,312 368,303 366,301 366,299Z M359,335 361,336 361,339 360,340 358,339 358,336Z M359,327 361,326 362,327 362,329 360,330 359,329Z M544,286 542,286 541,287 535,287 523,292 514,302 511,309 511,316 508,320 512,317 521,317 522,316 524,316 533,311 541,299 541,297 543,293 543,290 544,289Z M610,269 600,274 600,275 598,276 598,277 596,278 592,283 591,283 591,285 589,286 588,288 588,292 586,294 587,295 587,298 585,301 586,313 588,313 588,311 592,305 592,302 594,298 596,297 598,300 597,303 595,304 594,306 595,308 593,309 590,315 591,316 600,311 604,307 604,306 607,304 607,302 611,296 610,294 612,293 612,277 611,276 611,273 612,272Z M257,268 255,271 255,276 254,277 254,290 255,291 256,298 260,305 267,312 273,316 275,316 279,318 281,320 280,319 280,316 281,315 281,309 282,308 282,298 281,297 281,293 279,290 279,288 273,279 272,279 266,273Z M273,307 275,306 277,310 275,311Z M117,267 124,278 131,285 141,291 147,292 148,293 158,293 159,292 163,292 168,290 173,290 169,285 166,279 157,270 150,266 144,265 143,264 129,264 128,265 124,265 123,266 119,266Z M165,286 167,285 169,286 170,288 168,289 166,288Z M156,282 158,281 160,282 161,284 159,285 157,284Z M751,267 750,266 747,266 742,264 737,264 736,263 728,263 727,264 722,264 721,265 719,265 707,272 701,279 697,286 693,290 689,292 695,289 697,289 701,291 704,291 705,292 709,292 710,293 717,293 718,292 725,291 737,284 742,279 747,271Z M708,283 707,285 703,287 701,286 702,284 706,282Z M710,281 712,280 713,282 711,283Z M328,260 323,266 318,276 318,278 317,279 317,289 316,290 318,294 318,297 320,299 320,301 329,312 329,316 330,317 330,313 328,309 330,308 331,310 332,307 336,302 339,296 339,293 340,292 340,279 334,267 330,261Z M328,291 330,292 330,301 329,302 327,301 327,292Z M813,266 799,259 796,259 795,258 783,258 782,259 776,260 771,263 763,271 762,274 760,276 760,279 759,280 757,280 761,280 764,282 767,282 771,284 787,284 799,278Z M763,276 765,275 766,277 764,278Z M768,274 770,273 771,275 769,276Z M771,273 773,272 774,274 772,275Z M54,266 66,277 72,281 79,284 82,284 83,285 92,285 93,284 101,283 107,280 112,281 108,279 108,277 106,275 105,272 100,266 93,261 85,258 74,258 73,259 70,259 61,263 59,263Z M103,277 105,276 107,277 108,279 106,280 104,279Z M98,275 100,274 102,275 103,277 101,278 99,277Z M95,274 97,273 98,275 96,276Z M92,273 94,272 95,274 93,275Z M89,272 91,271 92,273 90,274Z M651,255 639,261 638,263 634,267 633,267 633,269 630,271 630,273 628,276 628,280 627,281 627,289 629,290 628,294 629,292 632,292 633,290 635,291 642,287 648,281 648,279 650,278 653,270 653,262 652,261 652,256Z M214,254 214,271 217,279 224,287 233,292 237,293 239,295 239,288 240,287 240,284 239,283 239,278 238,277 237,271 228,261Z M618,229 603,231 596,235 589,242 586,248 583,263 586,260 595,259 605,254 612,246 615,240Z M250,229 250,232 251,233 251,236 252,237 253,242 257,249 262,254 269,258 276,259 277,260 281,260 282,261 282,251 281,250 280,245 277,240 273,236 266,232 264,232 260,230Z M720,231 717,229 709,228 700,232 698,234 697,239 693,242 690,242 690,244 687,246 685,255 686,255 694,247 696,247 696,245 698,244 697,241 701,238 703,239 707,238 708,239 708,241 706,243 706,245 700,248 690,258 688,262 701,259 700,257 701,255 705,256 704,254 707,252 707,250 708,249 709,249 713,245 716,245 717,243 719,243 718,241 721,236Z M144,229 145,238 147,239 147,242 149,243 158,255 160,255 161,257 167,260 182,263 180,260 179,260 159,241 160,239 164,240 168,243 179,255 183,257 182,256 182,251 180,247 180,244 178,243 178,242 169,233 169,232 165,231 163,229 159,229 157,227 156,228 154,228 153,227 147,227 146,229Z M785,223 778,222 777,221 761,221 760,222 757,222 751,225 744,231 739,239 739,241 738,242 739,245 738,246 736,246 741,246 742,247 747,247 748,248 757,248 758,247 764,246 772,241 779,234 785,225Z M81,224 88,234 97,243 105,247 109,247 110,248 121,248 126,246 130,246 128,239 124,232 119,227 110,222 108,222 107,221 91,221 90,222 82,223Z M118,239 120,238 122,239 123,241 121,242 119,241Z M676,212 664,211 662,213 659,213 658,214 650,216 644,222 643,222 643,223 640,225 640,227 638,228 638,232 636,233 635,239 634,240 636,239 637,237 639,237 640,239 635,243 647,243 648,242 655,241 664,236 668,232 668,230 671,228 674,222 673,221 674,216 675,215 674,213Z M643,232 645,232 646,233 646,235 644,237 642,237 641,236 641,234Z M656,225 656,227 655,228 653,228 650,232 647,232 646,231 646,230 647,229 649,229 652,225 654,224Z M415,211 412,211 402,221 397,233 398,245 404,258 404,256 412,248 418,238 418,234 419,233 419,224 418,223 418,220 417,219Z M192,212 192,214 193,215 192,217 193,218 194,223 199,232 201,233 204,237 211,241 217,242 218,243 233,243 233,240 232,239 232,236 231,235 230,230 228,226 222,219 218,216 208,212 201,212 200,211Z M228,239 230,238 231,240 229,241Z M223,235 224,234 226,234 227,235 227,237 225,238Z M218,231 219,230 221,230 222,232 221,233 219,233Z M213,228 215,227 216,229 214,230Z M170,207 169,208 169,215 172,221 177,225 183,228 183,219 181,215 175,209Z M698,206 691,210 685,218 685,228 693,223 696,220 699,213 699,207Z M480,188 471,198 469,203 469,206 468,207 468,211 469,212 470,217 476,227 476,230 478,224 484,217 487,209 486,200Z M387,188 379,198 378,204 377,205 378,214 383,224 383,223 389,217 393,210 393,198 389,190Z M752,183 744,183 743,184 736,185 733,187 733,189 732,190 730,189 727,190 722,195 721,199 719,201 720,205 723,203 725,203 726,204 726,206 723,210 720,212 716,213 718,213 719,212 728,212 729,211 732,211 734,209 736,209 741,206 746,198 749,196 749,193 751,192 750,191 750,188 752,185Z M738,195 738,196 731,202 729,202 727,204 725,203 725,202 735,193Z M115,182 116,191 120,197 121,201 122,201 128,208 133,211 139,212 140,213 150,213 150,211 148,210 148,209 150,208 150,206 148,205 148,200 143,192 140,190 140,189 138,189 134,187 133,185 128,183Z M143,206 144,205 146,205 147,206 147,208 145,209Z M133,197 135,196 137,199 141,201 142,203 140,204 136,202Z M710,176 706,176 705,175 691,175 690,176 687,176 678,181 671,189 669,193 669,195 674,196 675,197 679,197 680,198 685,198 686,197 692,196 694,194 700,191 703,187 705,186 705,184 710,179Z M678,190 677,192 671,195 669,194 670,192 676,189Z M685,187 685,188 682,190 680,190 679,189 680,187 682,187 683,186Z M157,177 163,186 170,193 177,197 179,197 180,198 191,198 195,196 200,196 195,186 190,181 181,176 178,176 177,175 165,175 164,176 159,176Z M510,163 500,182 500,190 499,191 500,192 500,194 499,195 500,196 500,199 502,201 503,205 509,213 509,215 510,216 510,221 510,216 509,215 509,197 508,196 509,189 510,188 512,189 512,214 512,212 515,210 519,204 521,199 521,196 522,195 522,184 521,183 521,181 518,177 518,173 516,172 515,169 513,168 513,166Z M258,160 258,163 260,165 260,172 258,175 258,178 259,179 258,181 260,182 262,187 269,195 275,198 278,201 280,201 282,203 282,201 280,200 278,196 275,193 272,186 268,180 268,179 270,178 275,182 281,192 282,197 284,199 285,198 284,197 284,186 285,185 283,184 282,179 279,173 276,169 272,166 267,164 265,162 263,162 260,159Z M611,158 608,160 608,162 606,163 605,165 603,166 600,166 599,165 598,166 596,166 596,167 593,169 589,174 591,175 591,177 589,178 589,180 588,181 586,181 584,184 584,188 587,190 586,192 584,191 584,193 585,194 586,194 588,189 591,185 590,184 590,182 591,181 593,181 594,179 596,178 599,180 599,182 593,191 592,194 588,197 589,198 588,201 591,199 595,198 595,195 596,194 598,195 600,193 602,193 602,191 603,190 602,189 602,187 603,186 605,187 609,181 608,175 610,174 610,170 611,169Z M700,134 699,135 693,135 690,137 688,137 686,141 684,141 683,140 683,142 682,143 680,142 679,144 673,149 673,152 671,153 671,155 670,156 674,158 680,150 683,149 685,147 687,148 686,152 675,164 680,165 681,166 682,165 684,165 690,160 689,158 691,156 693,157 696,153 695,152 695,150 696,149 698,150 700,144 702,143 701,142 702,137 700,136Z M164,134 164,135 166,136 168,146 173,155 174,154 176,155 175,157 178,161 179,161 180,163 183,165 190,165 192,164 195,168 200,170 196,166 195,166 179,149 180,147 183,147 198,162 198,163 199,163 200,162 200,160 198,158 197,152 194,147 189,142 178,136Z M498,131 496,131 493,133 491,133 488,135 486,135 479,138 466,150 465,153 463,155 463,157 461,161 460,176 453,190 457,184 462,179 466,177 472,176 480,172 489,164 494,155 494,153 496,149 496,144 497,143 497,132Z M373,131 373,144 374,145 374,149 375,150 375,153 381,164 391,173 401,177 404,177 410,181 408,178 409,176 409,165 408,164 408,159 403,149 391,138 386,136 384,134 381,134 380,133 378,133 376,131Z M655,129 651,131 648,131 645,133 642,133 636,137 636,138 630,143 626,152 626,163 624,168 628,164 635,163 643,159 650,152 653,147 653,145 655,141 655,137 656,136 656,130Z M213,129 212,130 212,135 213,136 214,144 217,151 220,155 226,160 232,163 241,165 244,167 243,165 243,155 242,154 242,151 237,141 229,134Z M556,127 554,127 548,133 547,133 547,134 542,139 542,141 540,143 538,148 538,151 537,152 537,163 538,164 538,167 540,170 541,179 540,180 540,182 536,184 536,191 535,192 534,202 532,206 532,209 530,212 530,214 525,225 519,234 519,236 517,238 512,248 507,254 506,257 503,260 499,267 471,300 465,309 461,313 460,316 456,319 456,321 454,322 454,325 445,339 441,349 439,350 440,352 438,353 438,355 437,356 435,355 436,343 437,342 437,338 438,337 439,327 440,326 440,323 441,322 441,319 443,314 443,310 446,302 446,298 447,297 447,293 448,292 448,288 449,287 450,274 451,273 451,242 450,241 450,235 449,234 448,225 446,224 447,222 445,221 445,219 446,218 442,209 442,207 435,194 432,192 432,190 420,174 418,170 422,179 422,181 424,184 424,186 426,189 426,191 428,194 429,199 431,202 435,217 437,218 436,222 437,223 438,237 439,238 439,259 438,260 437,273 436,274 434,285 429,298 429,301 427,304 427,306 424,313 422,312 414,294 412,293 408,287 407,283 404,281 404,279 400,276 399,273 397,272 397,270 388,261 386,261 379,253 377,253 372,248 372,247 366,242 365,239 362,236 359,230 358,220 357,219 357,212 366,196 367,189 368,188 368,186 367,185 367,178 364,172 364,170 360,164 360,162 358,162 358,163 350,172 347,177 346,183 345,184 345,197 349,206 352,209 352,222 353,223 353,228 352,229 351,229 347,225 347,224 339,217 335,211 331,203 331,201 330,200 330,195 328,191 329,195 328,196 328,200 326,201 323,197 319,194 315,188 305,178 305,177 301,175 298,172 309,186 310,189 322,206 323,209 329,218 342,233 341,235 333,232 326,231 325,230 321,230 316,228 312,228 311,227 304,226 300,224 297,224 296,223 282,219 264,210 261,207 259,208 255,207 251,203 248,197 240,190 230,186 214,185 213,184 216,188 221,198 230,206 238,209 253,209 254,208 256,208 262,211 280,224 292,230 294,230 299,233 301,233 314,238 317,238 320,240 327,241 336,245 341,246 353,252 366,261 370,265 371,265 386,281 395,294 403,310 403,312 405,315 405,318 408,324 408,327 409,328 409,331 411,336 411,342 412,343 412,349 413,350 413,364 414,365 414,382 413,383 413,429 412,430 410,429 403,416 397,408 393,405 393,403 385,395 384,395 372,382 371,382 365,376 357,370 344,357 343,357 340,353 334,348 332,344 325,337 325,335 313,317 305,300 305,298 302,291 301,279 300,278 300,275 301,274 301,272 300,271 301,260 301,262 300,263 300,268 299,269 299,276 298,277 298,281 297,282 295,281 294,278 288,270 291,275 292,280 294,283 298,303 299,304 300,310 302,313 303,318 312,336 319,347 322,350 322,352 321,353 314,351 306,346 303,346 300,344 293,342 291,340 289,340 280,335 278,335 274,332 270,331 248,319 230,307 215,294 214,294 192,272 192,271 189,269 189,268 188,268 194,276 193,278 191,278 182,273 190,278 201,289 205,295 222,312 222,313 220,314 219,313 217,313 213,311 210,311 206,309 203,309 199,307 194,307 193,306 188,306 187,305 180,305 179,304 172,304 161,308 169,314 171,314 172,315 185,315 186,314 194,314 195,313 198,313 199,314 209,314 210,315 214,315 228,320 231,320 249,333 264,341 266,343 268,343 270,345 292,356 294,356 301,360 303,360 321,369 323,371 330,374 332,376 338,379 350,388 370,408 380,422 385,432 387,434 387,436 394,450 394,452 399,465 399,468 401,472 401,474 400,475 398,474 397,471 393,467 393,466 380,454 371,448 357,441 355,441 350,438 348,438 344,436 341,436 340,435 330,433 329,432 325,432 324,431 320,431 319,430 314,430 313,429 306,429 305,428 299,428 298,427 292,427 291,426 286,426 285,425 275,424 270,422 266,422 262,420 258,420 257,419 246,416 243,414 240,414 225,407 223,407 216,403 214,403 212,401 199,395 194,391 189,389 159,370 148,365 146,363 138,359 136,359 122,352 120,352 106,345 104,343 111,349 128,356 130,358 135,360 149,369 157,376 161,378 169,385 181,393 183,396 182,397 180,397 179,396 159,396 158,397 151,397 150,398 145,398 144,399 139,399 138,400 131,400 130,401 112,401 111,400 106,400 105,399 97,397 92,394 90,394 88,392 78,387 76,385 77,383 79,383 78,379 74,372 69,367 61,364 52,364 57,373 64,380 67,382 74,384 79,389 87,393 92,397 104,402 103,404 99,405 102,405 103,404 134,405 135,404 141,404 142,403 147,403 148,402 157,402 158,401 180,402 181,403 184,403 185,404 191,405 200,409 202,409 210,413 212,415 238,427 240,427 253,432 260,433 261,434 260,436 258,436 257,437 253,437 252,438 248,438 247,439 240,440 226,445 223,445 222,446 219,446 215,448 212,448 207,450 203,450 202,451 190,452 189,453 181,453 180,454 173,454 172,453 166,453 165,452 158,451 154,449 160,452 163,452 164,454 162,456 156,456 155,457 145,458 144,459 140,459 139,460 135,460 134,461 113,461 112,460 105,460 116,461 117,462 122,462 123,463 128,463 129,464 128,466 126,466 121,469 117,470 124,468 127,466 130,466 135,464 146,464 147,463 174,463 175,462 194,462 195,461 197,461 198,463 188,472 182,481 176,495 177,492 183,483 196,470 216,459 226,457 227,456 236,455 241,453 245,453 246,452 250,452 251,451 256,451 257,450 262,450 263,449 270,449 271,448 283,448 284,447 305,448 306,449 311,449 312,450 321,451 325,453 328,453 329,454 337,456 353,464 362,470 366,474 367,474 381,489 390,503 391,507 394,512 394,514 397,521 398,528 399,529 399,534 400,535 400,561 399,562 399,567 398,568 398,572 397,573 396,580 391,591 391,593 387,599 385,604 375,617 361,630 355,634 338,642 335,642 334,643 327,644 326,645 320,645 319,646 307,646 306,645 304,645 294,641 287,640 283,638 279,638 278,637 274,637 273,636 268,636 267,635 260,635 259,634 252,634 251,635 249,635 248,634 233,634 230,636 226,635 225,636 215,637 214,638 211,638 210,639 199,642 185,649 176,655 164,666 154,679 148,691 148,693 146,697 146,700 145,701 144,713 143,714 143,726 144,727 144,734 145,735 145,738 146,739 146,742 147,743 148,748 157,765 164,774 174,784 192,797 197,799 199,801 214,808 216,808 229,813 232,813 233,814 243,816 244,817 253,818 254,819 253,821 251,821 246,824 244,824 237,827 231,827 230,828 208,828 207,827 200,827 208,828 209,829 218,829 219,830 234,829 235,831 231,834 221,845 230,836 239,830 265,821 269,821 270,820 302,820 303,819 312,819 313,818 319,818 320,817 324,817 326,816 327,817 326,819 322,821 313,829 297,840 277,850 274,850 273,851 270,851 269,852 259,854 263,854 264,853 271,852 272,853 272,855 267,861 278,851 305,839 306,840 306,842 302,849 302,852 300,856 299,862 296,868 292,873 298,866 303,856 303,854 307,845 311,839 322,828 338,817 345,814 347,812 351,811 353,809 360,807 365,804 367,804 391,792 409,780 411,780 412,782 409,788 409,790 403,801 403,803 401,805 398,812 393,819 380,831 374,835 367,838 365,840 360,842 357,845 353,847 342,858 334,863 322,875 333,865 339,861 341,861 342,863 341,864 339,874 338,875 338,879 337,880 337,881 338,881 342,865 346,858 356,848 364,844 366,842 368,842 379,836 380,837 380,840 377,845 377,847 375,851 375,854 374,855 374,859 373,860 373,873 374,874 374,878 380,895 380,892 378,888 377,880 376,879 376,862 377,861 378,853 384,839 391,829 397,823 400,818 402,817 403,818 403,839 404,840 406,848 408,851 408,853 411,858 412,864 413,865 413,883 412,884 412,887 413,881 414,880 414,865 415,864 418,866 420,870 423,873 426,880 426,878 423,872 417,864 412,854 412,852 409,845 409,842 408,841 408,836 407,835 407,822 408,821 408,816 409,815 409,812 410,811 410,808 411,807 413,799 429,767 487,719 524,692 527,691 532,687 542,682 544,680 564,670 566,670 569,668 571,668 574,666 576,666 586,662 589,662 590,661 593,661 598,659 603,659 604,658 609,658 610,657 635,657 636,658 641,658 642,659 649,660 665,667 672,672 682,682 690,695 690,697 693,704 693,707 694,708 694,715 695,716 694,730 693,731 692,738 684,754 677,763 666,773 650,783 648,783 636,789 633,789 632,790 630,790 626,792 623,792 622,793 619,793 618,794 606,795 605,796 600,796 599,797 591,797 583,791 573,779 567,764 568,763 570,763 575,766 582,768 588,771 598,778 594,774 585,768 574,763 569,759 566,758 555,748 546,742 544,742 537,738 535,738 534,737 535,735 538,735 539,734 546,734 547,733 568,733 569,734 574,734 575,735 582,736 587,739 589,739 591,741 597,744 606,752 615,764 618,771 622,777 619,771 620,769 633,777 620,767 605,746 606,745 608,745 609,746 613,746 614,747 618,747 619,748 627,748 628,749 632,749 636,751 639,751 642,753 644,753 651,756 659,756 650,755 647,753 645,753 640,750 636,749 635,747 639,745 646,744 660,739 658,740 654,740 646,743 637,744 636,745 621,745 620,744 614,744 613,743 606,742 595,737 593,737 590,735 585,734 582,732 579,732 571,729 572,727 576,727 580,725 583,725 588,723 593,723 594,722 615,722 616,723 621,723 613,722 612,721 592,721 591,722 585,722 584,723 580,723 579,724 576,724 571,726 567,726 566,727 561,727 560,728 543,728 542,729 535,729 534,730 523,731 522,732 512,733 511,734 498,735 497,736 490,737 480,742 481,743 499,743 500,742 506,742 507,741 522,741 523,742 533,743 549,750 553,753 564,765 569,775 570,782 571,780 573,781 577,790 579,793 582,795 581,797 571,797 570,796 562,796 561,795 557,795 556,794 551,794 550,793 543,792 540,790 536,790 533,788 530,788 524,785 519,784 487,768 485,766 474,760 461,750 442,767 446,771 448,775 448,777 451,782 454,793 458,802 458,805 460,810 460,814 461,815 461,824 462,825 462,829 461,830 460,843 456,852 456,854 453,860 445,871 441,880 451,864 453,863 454,864 454,879 455,880 455,884 455,877 454,876 455,863 456,862 457,857 462,848 462,846 465,839 466,827 467,826 467,820 468,819 472,822 483,836 489,848 489,850 491,854 491,857 492,858 492,865 493,866 492,879 491,880 491,884 490,885 487,896 491,887 491,885 493,882 493,879 495,874 495,856 494,855 492,845 489,839 489,837 490,836 508,845 514,849 522,857 526,863 526,865 529,872 529,875 530,876 530,880 531,881 529,868 527,863 527,861 528,860 535,864 546,874 540,867 539,867 534,862 527,858 515,846 488,830 478,821 470,810 465,800 465,798 463,795 463,793 459,784 459,782 460,781 471,787 473,789 478,791 480,793 502,804 504,804 507,806 509,806 518,810 520,812 534,819 547,828 559,841 564,851 564,853 568,862 570,864 571,867 577,873 570,864 570,862 568,859 566,849 562,841 563,839 565,839 578,846 580,846 592,852 602,861 595,854 596,852 609,854 610,855 614,855 608,854 607,853 603,853 602,852 599,852 594,850 591,850 585,846 574,841 572,839 564,835 556,828 544,820 542,818 543,816 545,817 549,817 550,818 558,818 559,819 566,819 567,820 605,820 606,819 619,818 620,817 625,817 630,815 634,815 635,814 638,814 639,813 653,809 671,801 673,799 684,793 693,786 707,772 719,753 719,751 721,748 721,746 724,739 725,729 726,728 726,710 725,709 725,704 724,703 723,696 715,679 711,673 696,657 688,651 668,641 666,641 659,638 652,637 651,636 639,635 638,634 612,634 611,635 603,635 600,637 597,636 594,638 591,637 590,638 575,641 571,644 569,643 568,644 566,644 565,646 563,646 562,647 538,647 537,646 533,646 532,645 527,645 526,644 515,641 505,636 495,629 487,621 481,613 475,602 475,600 473,597 473,595 471,591 471,588 469,584 468,573 467,572 467,550 468,549 469,537 470,536 470,533 471,532 471,529 472,528 474,520 479,511 480,507 492,489 508,473 521,464 540,455 542,455 546,453 549,453 553,451 556,451 557,450 562,450 563,449 568,449 569,448 590,447 591,448 602,448 603,449 608,449 609,450 615,450 616,451 620,451 625,453 629,453 630,454 634,454 635,455 650,458 655,461 657,461 663,464 672,470 683,480 689,488 693,496 684,477 671,463 672,461 677,461 678,462 700,462 701,463 722,463 723,464 734,464 751,470 743,466 741,466 740,464 745,462 752,462 753,461 762,460 754,460 753,461 737,461 736,460 730,460 729,459 725,459 724,458 720,458 719,457 708,456 704,454 705,452 713,450 723,445 714,449 708,450 704,452 700,452 699,453 684,453 683,452 676,452 675,451 661,449 653,446 642,444 638,442 635,442 634,441 631,441 630,440 627,440 626,439 623,439 618,437 608,436 607,434 608,433 615,432 616,431 618,431 622,429 625,429 628,427 633,426 656,415 658,413 668,408 670,408 676,405 687,403 688,402 696,402 697,401 712,401 713,402 721,402 722,403 734,404 735,405 753,405 754,404 763,404 764,405 776,406 764,404 763,402 764,401 767,401 779,395 791,387 796,382 803,380 809,374 815,364 815,363 807,363 797,367 792,373 789,380 789,383 791,382 793,383 792,385 784,389 782,391 764,399 754,400 753,401 741,401 740,400 732,400 731,399 725,399 724,398 712,397 711,396 687,396 686,395 687,393 692,390 718,369 735,358 747,352 749,352 759,347 761,345 751,350 744,352 737,356 735,356 719,364 712,369 698,376 690,382 687,383 672,393 645,407 643,407 638,410 628,413 625,415 623,415 619,417 616,417 609,420 606,420 605,421 602,421 597,423 593,423 588,425 583,425 578,427 573,427 572,428 567,428 566,429 561,429 560,430 555,430 554,431 545,432 544,433 542,433 540,435 538,434 537,435 534,435 533,436 522,439 507,446 505,448 502,449 501,451 499,451 490,457 477,470 476,470 475,468 476,467 480,453 484,445 484,443 486,441 486,439 489,433 491,431 498,418 511,401 529,383 545,371 558,364 560,362 584,350 586,350 592,346 594,346 598,344 600,342 604,341 606,339 616,334 637,319 640,319 641,318 651,316 652,315 664,314 665,313 667,314 668,313 671,313 672,314 680,314 681,315 695,315 696,314 698,314 702,310 708,307 700,304 691,303 690,304 685,304 684,305 680,305 675,307 663,308 662,309 652,311 649,313 647,312 647,311 661,296 671,283 684,273 676,278 674,278 673,276 677,271 670,277 670,279 662,285 654,294 651,295 645,301 644,301 641,305 634,310 632,310 626,314 625,316 623,316 623,317 619,320 610,325 608,325 600,329 596,332 594,332 580,339 570,342 568,344 564,345 562,347 559,347 549,352 548,350 556,338 557,334 559,331 559,329 563,322 563,320 565,316 565,313 568,306 568,302 569,301 569,297 570,296 570,292 572,288 572,285 576,277 575,276 571,284 568,286 567,285 567,278 566,277 565,268 563,263 563,266 565,271 565,284 564,285 564,292 562,296 562,301 560,303 560,307 558,308 557,312 555,315 555,318 551,323 547,333 531,355 527,358 520,366 518,365 518,363 521,355 522,345 517,333 514,335 509,347 510,348 510,366 506,376 489,398 480,407 477,411 477,413 474,415 474,418 469,423 467,428 465,430 462,436 462,438 460,440 460,443 457,447 454,457 452,458 451,457 451,449 450,448 450,441 449,440 448,408 449,407 449,396 450,395 451,384 452,383 452,379 453,378 453,374 455,370 455,367 459,358 460,353 470,332 472,330 481,314 484,311 488,304 491,301 492,298 504,283 506,279 512,272 514,268 524,258 538,247 553,239 558,238 563,235 570,233 586,225 597,218 608,209 612,207 617,209 628,209 629,208 632,208 635,206 637,206 647,197 654,186 654,185 641,185 640,186 633,187 625,192 619,198 618,201 613,206 598,213 597,215 593,215 590,217 588,217 586,218 585,220 583,219 580,221 577,221 574,223 568,224 567,226 565,225 564,226 553,229 534,238 530,241 529,240 529,238 531,235 532,230 535,226 535,224 538,220 541,213 544,210 544,208 555,193 555,191 557,190 557,188 560,186 566,177 572,171 572,170 568,174 568,175 564,178 556,186 556,187 552,190 551,192 550,192 550,193 539,205 537,204 537,200 538,199 538,189 539,188 539,184 540,183 541,178 547,174 555,166 558,160 558,158 560,156 560,141 559,140 559,137 558,136 558,133 557,132Z M539,816 541,815 542,817 540,818Z M422,639 424,638 428,646 433,653 443,663 453,670 460,679 461,682 464,686 456,671 457,669 459,669 463,671 466,671 473,674 476,674 482,677 485,677 489,679 495,679 496,681 485,690 469,701 461,708 459,709 454,708 447,703 438,694 431,684 427,676 427,674 425,670 425,667 424,666 424,663 423,662 423,656 422,655Z M455,711 452,715 451,715 417,743 401,755 391,761 388,764 385,765 373,773 367,776 365,776 352,783 350,783 347,785 342,786 333,790 330,790 329,791 319,793 318,794 306,795 305,796 299,796 298,797 280,797 279,795 283,791 288,783 293,778 298,771 300,772 298,785 299,784 301,775 305,767 316,756 327,751 330,751 335,749 341,749 342,748 377,749 390,743 385,743 384,742 367,742 366,741 357,741 356,740 349,740 348,739 337,738 336,737 332,737 331,736 327,736 326,735 322,735 321,734 316,734 315,733 312,733 311,732 306,731 303,729 301,729 298,727 296,727 289,724 286,724 281,722 277,722 276,721 257,721 256,722 251,722 250,723 248,723 253,723 254,722 275,722 276,723 280,723 281,724 284,724 290,727 292,727 299,731 299,733 298,734 292,734 291,735 282,736 278,738 275,738 268,741 265,741 264,742 261,742 260,743 257,743 252,745 235,745 234,744 229,744 228,743 224,743 223,742 212,740 214,740 227,745 235,746 236,748 221,755 211,756 210,757 219,756 220,758 223,755 235,750 243,749 244,748 250,748 251,747 257,747 258,746 262,746 263,745 265,746 265,747 259,753 251,765 238,776 250,768 251,770 249,773 249,775 252,767 257,760 264,753 264,752 271,746 280,741 282,741 286,739 290,739 291,738 298,738 299,737 302,737 303,738 315,738 316,739 320,739 331,743 330,745 322,747 313,752 306,758 303,759 298,763 273,775 272,776 276,775 282,771 284,771 294,767 296,768 286,783 279,790 270,796 262,796 261,795 255,795 250,793 242,792 241,791 233,789 230,787 228,787 223,784 221,784 210,778 197,768 192,763 184,752 178,740 178,738 176,734 176,730 175,729 175,723 174,722 175,709 176,708 176,704 177,703 178,698 185,685 189,681 189,680 200,670 210,664 212,664 220,660 223,660 228,658 233,658 234,657 260,657 261,658 266,658 267,659 276,660 277,661 280,661 284,663 287,663 288,664 293,665 296,667 303,669 312,674 314,674 316,676 329,682 364,705 368,709 381,718 390,726 410,741 425,728 429,726 429,725 428,725 394,697 390,695 369,679 363,676 345,664 340,662 338,660 321,652 320,650 321,649 325,649 326,650 343,650 344,649 351,649 352,648 356,648 357,647 364,646 370,643 372,643 382,638 391,632 403,620 409,612 412,606 413,606 414,608 413,609 412,618 411,619 410,637 409,638 409,641 410,642 410,652 411,653 411,658 412,659 412,662 413,663 413,666 414,667 415,672 425,689 436,701 440,704Z M395,638 385,653 383,654 383,655 374,665 377,665 378,666 377,668 380,664 379,662 382,659 384,660 383,673 384,674 384,679 385,681 385,664 386,663 386,658 387,657 388,652 391,647 391,645Z M428,562 429,561 431,562 431,569 432,570 433,581 434,582 435,589 436,590 438,598 441,603 441,605 452,622 463,633 473,640 481,644 483,644 491,648 494,648 499,650 510,651 511,652 533,652 534,651 542,651 543,650 545,650 546,652 544,653 543,655 538,656 534,658 533,660 531,660 525,663 523,665 515,669 514,671 512,671 510,673 507,674 506,676 504,676 498,680 488,677 475,671 467,669 453,662 443,653 438,646 437,643 434,639 434,637 432,634 432,632 430,628 430,625 428,621 428,616 427,615 427,576 428,575Z M474,644 479,650 486,654 489,657Z M543,168 545,167 546,169 544,170Z M548,155 549,156 548,158 548,162 547,163 547,166 545,167 544,166 544,161 546,156Z M316,126 313,130 313,132 311,135 310,141 309,142 309,155 310,156 311,161 315,168 327,180 327,184 327,175 332,164 332,149 327,138Z M324,174 326,173 327,175 325,176Z M323,170 325,169 326,171 324,172Z M322,165 324,164 325,165 325,167 323,168 322,167Z M321,161 323,160 324,161 324,163 322,164 321,163Z M592,108 584,114 575,129 574,138 576,140 576,142 575,143 577,144 576,146 577,147 577,149 579,150 580,143 582,141 584,142 581,152 580,153 578,152 580,154 581,152 583,152 591,145 594,140 594,138 596,136 597,122Z M582,139 584,138 585,140 583,141Z M585,132 587,131 588,133 586,134Z M278,107 277,111 275,114 275,117 272,125 273,135 274,136 274,138 277,141 277,143 285,151 288,152 290,155 288,152 288,150 287,150 286,148 287,147 289,147 291,150 291,152 291,150 293,147 292,145 294,144 293,142 295,141 295,137 296,136 295,127 293,124 292,120 288,117 285,112 281,108Z M286,140 287,140 289,143 289,145 288,146 286,145 286,143 285,142Z M539,97 537,97 523,105 516,113 516,115 513,120 513,123 512,124 513,125 512,127 512,136 513,137 514,133 520,122 524,118 525,118 526,120 522,129 520,132 518,133 516,138 514,140 512,139 512,141 515,139 522,137 528,133 529,131 531,131 534,127 534,125 536,124 539,116 539,113 540,112 539,110Z M332,97 332,107 331,108 331,112 333,116 334,123 342,133 357,141 355,137 357,136 358,138 359,136 359,134 358,133 358,121 354,111 349,106 349,105 348,105 344,101 341,101 340,99 337,99 336,97 334,96Z M347,120 348,120 349,122 351,123 351,125 353,126 354,131 356,133 356,135 355,136 354,136 352,132 350,131 346,122Z M637,87 636,87 635,89 631,90 630,92 625,94 614,106 614,108 612,111 612,114 611,115 611,133 612,134 612,136 610,140 613,135 623,131 631,125 634,121 639,109 639,91Z M616,127 617,129 615,133 613,134 612,132 614,128Z M399,86 398,88 398,93 397,94 397,114 398,115 399,120 404,128 409,133 420,140 423,143 435,167 435,169 439,179 440,164 441,163 441,160 442,159 445,148 448,142 453,137 460,133 466,128 469,124 473,115 473,111 474,110 474,94 473,93 473,87 468,89 459,95 449,106 447,110 447,112 445,116 445,120 444,121 444,128 445,129 445,136 446,138 441,148 438,158 435,160 424,140 424,135 426,130 426,117 425,116 424,111 419,102 411,94Z M418,129 420,130 423,136 422,138 420,137 417,131Z M452,128 453,130 451,133 451,135 449,136 448,135 448,133 450,129Z M414,123 416,122 417,124 415,125Z M232,86 231,88 231,92 230,93 230,109 231,110 232,116 236,123 240,127 249,133 251,133 255,135 257,137 256,134 258,132 258,126 259,125 259,117 258,116 257,110 253,102 245,94 239,90 234,88Z M573,59 569,61 563,70 561,71 558,78 558,92 560,95 560,97 562,98 562,101 565,105 565,108 567,104 569,103 575,96 575,94 580,85 580,76 579,75 577,67 573,61Z M565,98 567,99 567,104 566,105 564,104 564,99Z M568,89 569,90 568,97 566,98 565,97 565,93 566,92 566,90Z M299,58 293,71 293,75 292,76 292,85 293,87 292,89 294,91 298,99 302,103 304,103 305,104 305,106 305,105 308,103 313,93 313,90 314,89 314,80 313,79 312,73 309,68 307,67 307,65Z M304,102 306,101 307,103 305,104Z M304,94 306,95 306,98 305,99 303,98 303,95Z M303,87 305,88 305,91 306,92 305,94 304,94 302,91 302,88Z M527,56 525,56 525,58 524,59 521,59 520,58 518,59 517,61 513,61 506,66 507,67 506,71 505,72 503,72 501,74 499,74 496,78 496,81 494,84 494,88 495,90 499,89 508,77 506,76 506,74 507,73 509,73 510,74 513,72 515,74 515,76 511,82 509,83 502,95 502,97 505,101 507,100 508,98 510,98 511,96 513,96 519,88 518,84 519,83 522,83 521,79 525,77 525,71 527,66Z M345,57 345,69 346,70 346,74 347,75 347,77 351,79 350,83 352,83 353,84 352,88 354,91 356,92 362,98 362,99 364,98 370,101 371,103 372,99 371,101 369,101 368,100 370,96 369,97 367,96 367,94 368,93 363,84 358,78 358,76 361,74 364,77 372,89 373,88 375,89 374,92 377,96 377,99 379,99 378,98 378,87 377,86 377,82 375,77 371,71 363,63 361,63 355,59 350,59 347,56Z M356,74 358,73 359,75 357,76Z M435,52 434,53 434,55 430,59 425,69 425,72 424,73 424,82 425,83 426,89 429,94 433,98 435,102 435,105 436,101 442,93 446,83 446,71 445,70 445,67 442,61 438,56 437,53Z M435,82 437,83 437,100 436,101 434,100 434,83Z M493,29 492,30 489,29 487,32 484,32 480,34 477,37 476,41 474,43 472,43 472,45 470,46 468,51 468,65 469,66 468,65 468,62 470,61 473,56 476,54 476,51 480,48 482,49 481,53 478,57 476,58 476,61 474,65 471,67 472,68 472,70 474,67 476,67 477,68 479,65 482,65 488,57 487,55 488,54 491,54 491,52 493,48 492,47 492,45 493,44 492,31Z M381,28 382,37 380,39 380,47 382,52 381,54 384,56 383,58 384,58 390,64 390,65 394,68 398,66 393,55 390,51 390,49 392,48 394,51 397,53 397,56 399,60 401,61 403,60 404,61 404,63 402,65 403,67 403,65 405,64 404,62 404,50 403,49 403,47 401,44 399,43 395,35 393,35 389,32 386,31 384,28Z M436,18 430,26 427,32 427,34 426,35 426,46 428,51 429,51 434,43 436,42 439,45 440,48 443,52 446,44 446,35 442,26Z" fill="#111111" fill-rule="evenodd"/>
</svg>
